@startuml
' TODO

' --------

' ==== < CONFIGURATION > ====

hide empty members
hide <<function>> circle

' ==== END of < CONFIGURATION > ====

package "Storage" {

	interface IPackageStockpile <<interface>> {
	} 

	interface IPackageQueue <<interface>> {
	} 
	IPackageQueue -|> IPackageStockpile

}
' == END of package "Storage"


package "Nodes" {

	interface IPackageReceiver <<interface>> {
		+ {abstract} receive_package(p: Package&&) : void
'		+ {abstract} get_receiver_type(void) : ReceiverType {query}
		+ {abstract} get_id(void) : ElementID {query}
	}

	enum ReceiverType <<enumeration>> {
                Worker
                Storehouse
	}
	IPackageReceiver ..> ReceiverType


	class ReceiverPreferences {
		+ preferences_t
		+ ReceiverPreferences(pg: ProbabilityGenerator)
		+ add_receiver(r: IPackageReceiver*) : void
		+ remove_receiver(r: IPackageReceiver*) : void
		+ choose_receiver(void) : IPackageReceiver*
		+ get_preferences(void) : preferences_t& {query}
	}


	class PackageSender {
		+ PackageSender(PackageSender&&)
		+ receiver_preferences_: ReceiverPreferences
		+ send_package(void) : void
		+ get_sending_buffer(void) : std::optional<Package>& {query}
		# push_package(Package&&) : void
	}

	PackageSender --* ReceiverPreferences

	class Ramp {
		+ Ramp(id: ElementID, di: TimeOffset) : void
		+ deliver_goods(t: Time) : void
		+ get_delivery_interval(void) : TimeOffset {query}
		+ get_id(void) : ElementID {query}
	}

	Ramp --|> PackageSender


	class Worker {
		+ Worker(id: ElementID, pd: TimeOffset, q: std::unique_ptr<IPackageQueue>) : void
		+ do_work(t: Time) : void
		+ get_processing_duration(void) : TimeOffset {query}
		+ get_package_processing_start_time(void) : Time {query}
	}

	Worker --|> PackageSender
	Worker ..|> IPackageReceiver
	IPackageQueue --o Worker

	class Storehouse {
		+ Storehouse(id: ElementID, d: std::unique_ptr<IPackageStockpile>)
	}

	Storehouse ..|> IPackageReceiver
	IPackageStockpile --o Storehouse

	Ramp -[hidden] Worker
	Worker -[hidden] Storehouse

	' == POSITIONING ==
	PackageSender -[hidden]> IPackageReceiver
	Ramp ..[hidden] PackageSender
	ReceiverPreferences -[hidden]- PackageSender

	IPackageQueue -[hidden]- Worker


	' == END of POSITIONING ==
}
' == END of package "Nodes"


' .. HELPERS ----

' .. DATA TYPES --
together {
	class Time << (T,orchid) primitive>>
	class TimeOffset << (T,orchid) primitive>>
	class ElementID << (T,orchid) primitive>>
	class ProbabilityGenerator << (T,orchid) primitive>>

	ElementID -[hidden] Time
	Time -[hidden] TimeOffset
	TimeOffset -[hidden] ProbabilityGenerator
}

' == END of together


' ==== < POSITIONING > ====

'ReceiverPreferences <-[hidden]- IPackageStockpile

'IPackageStockpile -[hidden]-> Storehouse

ReceiverPreferences -[hidden]- Time

' ==== END of < POSITIONING > ====
@enduml
